<svg width="115.4267mm" height="61.1102mm" viewBox="0 0 115.4267 61.1102" xmlns="http://www.w3.org/2000/svg"><g id="svgGroup" stroke-linecap="round" fill-rule="evenodd" font-size="9pt" stroke="#000" stroke-width="0.25mm" fill="none" style="stroke:#000;stroke-width:0.25mm;fill:none"><path d="M 0 52.1102 A 9 9 0 0 0 9 61.1102 L 106.4267 61.1102 A 9 9 0 0 0 115.4267 52.1102 L 115.4267 9 A 9 9 0 0 0 106.4267 0 L 9 0 A 9 9 0 0 0 0 9 L 0 52.1102 Z M 32.0199 20.2719 L 35.5355 20.2719 L 35.5355 41.8637 L 32.0199 41.8637 L 32.0199 32.1371 L 23.8754 32.1371 L 23.8754 29.7348 L 32.0199 29.7348 L 32.0199 20.2719 Z M 63.7777 19.1 L 63.7777 36.8246 A 6.1337 6.1337 0 0 0 63.8035 37.4057 Q 63.8601 37.9992 64.0414 38.392 Q 64.3051 38.9633 64.7738 39.2416 A 2.7734 2.7734 0 0 0 65.5511 39.552 A 3.3409 3.3409 0 0 0 65.8432 39.6078 Q 66.4438 39.6957 67.1469 39.6957 L 67.1469 41.8637 A 9.672 9.672 0 0 1 66.4579 41.9438 A 10.672 10.672 0 0 1 66.3559 41.9516 A 10.0852 10.0852 0 0 1 66.0977 41.9715 Q 65.8688 41.9864 65.5941 41.9955 A 26.3801 26.3801 0 0 1 64.7152 42.0102 A 13.2093 13.2093 0 0 1 63.8363 41.9809 Q 63.3969 41.9516 63.0453 41.893 A 3.1194 3.1194 0 0 1 62.2831 41.6365 A 2.3923 2.3923 0 0 1 61.4926 41.0141 Q 60.9359 40.3402 60.643 39.5053 A 7.2018 7.2018 0 0 1 60.3531 38.4283 A 6.1473 6.1473 0 0 1 60.2768 37.8793 A 26.1727 26.1727 0 0 1 60.2447 37.5058 Q 60.2132 37.102 60.2058 36.8142 A 6.4607 6.4607 0 0 1 60.2035 36.6488 L 60.2035 36.2973 L 60.2035 19.1 L 63.7777 19.1 Z M 74.4125 19.1 L 74.4125 36.8246 A 6.1337 6.1337 0 0 0 74.4382 37.4057 Q 74.4949 37.9992 74.6762 38.392 Q 74.9398 38.9633 75.4086 39.2416 A 2.7734 2.7734 0 0 0 76.1859 39.552 A 3.3409 3.3409 0 0 0 76.4779 39.6078 Q 77.0785 39.6957 77.7816 39.6957 L 77.7816 41.8637 A 9.672 9.672 0 0 1 77.0927 41.9438 A 10.672 10.672 0 0 1 76.9906 41.9516 A 10.0852 10.0852 0 0 1 76.7324 41.9715 Q 76.5036 41.9864 76.2289 41.9955 A 26.3801 26.3801 0 0 1 75.35 42.0102 A 13.2093 13.2093 0 0 1 74.4711 41.9809 Q 74.0316 41.9516 73.6801 41.893 A 3.1194 3.1194 0 0 1 72.9178 41.6365 A 2.3923 2.3923 0 0 1 72.1273 41.0141 Q 71.5707 40.3402 71.2777 39.5053 A 7.2018 7.2018 0 0 1 70.9878 38.4283 A 6.1473 6.1473 0 0 1 70.9115 37.8793 A 26.1727 26.1727 0 0 1 70.8795 37.5058 Q 70.8479 37.102 70.8405 36.8142 A 6.4607 6.4607 0 0 1 70.8383 36.6488 L 70.8383 36.2973 L 70.8383 19.1 L 74.4125 19.1 Z M 52.2348 37.5863 L 53.5238 39.5492 A 6.6973 6.6973 0 0 1 52.0422 40.9239 A 6.0921 6.0921 0 0 1 51.268 41.3656 Q 50.2177 41.8669 48.7006 41.9598 A 11.6926 11.6926 0 0 1 47.9867 41.9809 A 7.0211 7.0211 0 0 1 44.9691 41.3217 Q 43.5629 40.6625 42.5668 39.5199 A 8.7153 8.7153 0 0 1 41.1377 37.2288 A 10.0193 10.0193 0 0 1 40.9848 36.8539 A 8.9245 8.9245 0 0 1 40.408 34.0084 A 10.2933 10.2933 0 0 1 40.3988 33.5727 Q 40.3988 31.9027 40.9408 30.4086 A 8.9904 8.9904 0 0 1 41.9502 28.4116 A 8.0892 8.0892 0 0 1 42.4203 27.7865 A 7.8224 7.8224 0 0 1 44.6029 25.9555 Q 45.848 25.2523 47.2836 25.1645 L 47.2836 27.977 A 3.8545 3.8545 0 0 0 46.2983 28.2975 A 3.1643 3.1643 0 0 0 45.4965 28.8559 A 4.9932 4.9932 0 0 0 44.3979 30.3939 Q 44.0023 31.2582 43.8412 32.1664 A 12.6141 12.6141 0 0 0 43.743 32.8105 Q 43.6801 33.3163 43.6801 33.7191 A 8.2599 8.2599 0 0 0 43.7943 35.1169 A 6.9951 6.9951 0 0 0 43.9584 35.8432 A 4.9259 4.9259 0 0 0 44.4412 36.9924 A 4.3091 4.3091 0 0 0 44.8227 37.5424 A 4.2855 4.2855 0 0 0 46.2729 38.685 Q 47.084 39.0836 48.2176 39.1082 A 6.9354 6.9354 0 0 0 48.3676 39.1098 Q 48.5866 39.1098 48.8801 39.0759 A 8.3331 8.3331 0 0 0 49.1732 39.0365 A 5.0996 5.0996 0 0 0 49.7356 38.917 A 6.5038 6.5038 0 0 0 50.1986 38.7729 A 7.4307 7.4307 0 0 0 51.1471 38.3611 A 8.2919 8.2919 0 0 0 51.2826 38.2895 A 4.1134 4.1134 0 0 0 52.1534 37.6653 A 3.8331 3.8331 0 0 0 52.2348 37.5863 Z M 19.1 41.8637 L 19.1 20.2719 L 22.6742 20.2719 L 22.6742 41.8637 L 19.1 41.8637 Z M 89.2953 28.0063 L 89.2953 25.2523 Q 90.9066 25.3402 92.225 26.0287 Q 93.5434 26.7172 94.4369 27.8451 A 8.291 8.291 0 0 1 95.6273 29.9184 A 9.7213 9.7213 0 0 1 95.8285 30.4672 A 9.873 9.873 0 0 1 96.3178 33.2128 A 11.3255 11.3255 0 0 1 96.3266 33.6605 Q 96.3266 35.3598 95.8139 36.8393 A 8.6376 8.6376 0 0 1 94.9464 38.6554 A 7.5808 7.5808 0 0 1 94.393 39.4174 A 6.9622 6.9622 0 0 1 92.1664 41.1898 A 7.4779 7.4779 0 0 1 89.2953 41.9809 L 89.2953 39.1684 A 3.4238 3.4238 0 0 0 91.1462 38.0566 A 4.9707 4.9707 0 0 0 91.683 37.3227 A 6.2524 6.2524 0 0 0 92.4761 35.178 A 8.4977 8.4977 0 0 0 92.6059 33.6605 A 9.494 9.494 0 0 0 92.502 32.2324 A 8.1564 8.1564 0 0 0 92.3861 31.6244 A 6.5509 6.5509 0 0 0 92.0031 30.4567 A 5.6243 5.6243 0 0 0 91.727 29.9105 A 4.7616 4.7616 0 0 0 91.109 29.0614 A 4.0935 4.0935 0 0 0 90.6723 28.6508 Q 90.057 28.1527 89.2953 28.0063 Z M 88.0941 25.2816 L 88.0941 28.0063 A 3.3282 3.3282 0 0 0 86.2105 29.1845 A 4.8181 4.8181 0 0 0 85.7504 29.852 Q 84.8715 31.3754 84.8715 33.5141 A 9.559 9.559 0 0 0 84.9925 35.0586 A 8.4086 8.4086 0 0 0 85.0912 35.5648 A 7.4724 7.4724 0 0 0 85.3987 36.5876 A 6.0908 6.0908 0 0 0 85.7211 37.2934 A 4.4625 4.4625 0 0 0 86.3082 38.1425 A 3.8507 3.8507 0 0 0 86.7318 38.5531 Q 87.3324 39.0512 88.0941 39.1684 L 88.0941 41.9809 A 7.639 7.639 0 0 1 86.2059 41.6112 A 6.6325 6.6325 0 0 1 85.1938 41.1752 Q 83.9047 40.4867 82.9965 39.3734 A 7.7388 7.7388 0 0 1 81.8011 37.3129 A 9.0878 9.0878 0 0 1 81.6049 36.766 A 10.1508 10.1508 0 0 1 81.1234 33.81 A 11.425 11.425 0 0 1 81.1215 33.602 A 10.2181 10.2181 0 0 1 81.3569 31.3763 A 8.9639 8.9639 0 0 1 81.6195 30.4379 A 8.1153 8.1153 0 0 1 82.6056 28.4466 A 7.386 7.386 0 0 1 83.0404 27.8744 Q 83.9633 26.7758 85.2523 26.102 A 7.5302 7.5302 0 0 1 87.8053 25.3137 A 8.6843 8.6843 0 0 1 88.0941 25.2816 Z M 48.4848 27.9477 L 48.4848 25.1938 A 7.576 7.576 0 0 1 50.4287 25.6257 A 6.729 6.729 0 0 1 51.3412 26.0434 A 7.4051 7.4051 0 0 1 53.5238 27.8598 A 8.0551 8.0551 0 0 1 54.9079 30.3862 A 9.0537 9.0537 0 0 1 54.9154 30.4086 Q 55.3988 31.8441 55.3988 33.3969 Q 55.3988 34.1 55.3109 34.8031 L 45.2621 34.8031 L 45.2621 32.225 L 52.0297 32.225 Q 52.0297 31.4633 51.7807 30.7602 A 4.4236 4.4236 0 0 0 51.0482 29.4564 A 4.6307 4.6307 0 0 0 49.9203 28.4457 A 3.3189 3.3189 0 0 0 48.4848 27.9477 Z M 11.6 49.5102 m -2.6 0 a 2.6 2.6 0 0 1 5.2 0 a 2.6 2.6 0 0 1 -5.2 0 z M 103.8267 49.5102 m -2.6 0 a 2.6 2.6 0 0 1 5.2 0 a 2.6 2.6 0 0 1 -5.2 0 z M 103.8267 11.6 m -2.6 0 a 2.6 2.6 0 0 1 5.2 0 a 2.6 2.6 0 0 1 -5.2 0 z M 11.6 11.6 m -2.6 0 a 2.6 2.6 0 0 1 5.2 0 a 2.6 2.6 0 0 1 -5.2 0 z" vector-effect="non-scaling-stroke"/></g></svg>