<svg width="53.9977" height="53.5" viewBox="0 0 53.9977 53.5" xmlns="http://www.w3.org/2000/svg"><g id="svgGroup" stroke-linecap="round" fill-rule="evenodd" font-size="9pt" stroke="#000" stroke-width="0.25mm" fill="none" style="stroke:#000;stroke-width:0.25mm;fill:none"><path d="M 23.3331 53.5 30.6646 53.5 M 20.6792 53 33.3185 53 M 18.8787 52.5 35.119 52.5 M 17.4365 52 36.5611 52 M 16.2082 51.5 37.7895 51.5 M 15.1271 51 38.8706 51 M 14.156 50.5 39.8416 50.5 M 13.2716 50 40.7261 50 M 12.458 49.5 41.5397 49.5 M 11.7038 49 42.2939 49 M 11.0008 48.5 42.9969 48.5 M 10.3424 48 43.6553 48 M 9.7235 47.5 44.2742 47.5 M 9.14 47 44.8577 47 M 8.5886 46.5 45.4091 46.5 M 8.0664 46 45.9313 46 M 7.5711 45.5 46.4266 45.5 M 7.1007 45 46.897 45 M 6.6534 44.5 47.3443 44.5 M 6.2278 44 47.7699 44 M 5.8225 43.5 48.1752 43.5 M 5.4364 43 48.5613 43 M 5.0686 42.5 48.9291 42.5 M 4.718 42 49.2797 42 M 4.3839 41.5 23.6169 41.5 M 4.0655 41 21.1733 41 M 3.7623 40.5 19.5197 40.5 M 3.4736 40 18.199 40 M 3.1989 39.5 17.0773 39.5 M 2.9377 39 16.093 39 M 2.6896 38.5 15.2117 38.5 M 2.4542 38 14.4116 38 M 2.2312 37.5 13.6783 37.5 M 2.0201 37 13.0011 37 M 1.8207 36.5 12.3722 36.5 M 1.6328 36 11.7858 36 M 1.456 35.5 11.2369 35.5 M 1.2901 35 10.722 35 M 1.135 34.5 10.324 34.5 M 0.9904 34 10.0688 34 M 0.8562 33.5 9.9189 33.5 M 0.7322 33 9.8586 33 M 0.6182 32.5 9.8824 32.5 M 0.5142 32 9.9924 32 M 0.42 31.5 10.1993 31.5 M 0.3354 31 10.5287 31 M 0.2605 30.5 11.0463 30.5 M 0.1952 30 12.0595 30 M 0.1393 29.5 53.8584 29.5 M 0.0928 29 53.9049 29 M 0.0556 28.5 53.9421 28.5 M 0.0278 28 53.9699 28 M 0.0093 27.5 53.9884 27.5 M 0 27 53.9977 27 M 0 26.5 53.9977 26.5 M 0.0093 26 53.9884 26 M 0.0278 25.5 53.9699 25.5 M 0.0556 25 53.9421 25 M 0.0928 24.5 53.9049 24.5 M 0.1393 24 53.8584 24 M 0.1952 23.5 53.8025 23.5 M 0.2605 23 53.7372 23 M 0.3354 22.5 15.6069 22.5 M 0.42 22 14.667 22 M 0.5142 21.5 14.0941 21.5 M 0.6182 21 13.6917 21 M 0.7322 20.5 13.402 20.5 M 0.8562 20 13.1992 20 M 0.9904 19.5 13.0698 19.5 M 1.135 19 13.0067 19 M 1.2901 18.5 13.0067 18.5 M 1.456 18 13.0698 18 M 1.6328 17.5 13.1992 17.5 M 1.8207 17 13.402 17 M 2.0201 16.5 13.6917 16.5 M 2.2312 16 14.0941 16 M 2.4542 15.5 14.667 15.5 M 2.6896 15 15.6069 15 M 2.9377 14.5 51.06 14.5 M 3.1989 14 50.7988 14 M 3.4736 13.5 50.5241 13.5 M 3.7623 13 50.2354 13 M 4.0655 12.5 49.9322 12.5 M 4.3839 12 49.6138 12 M 4.718 11.5 49.2797 11.5 M 5.0686 11 48.9291 11 M 5.4364 10.5 48.5613 10.5 M 5.8225 10 48.1752 10 M 6.2278 9.5 47.7699 9.5 M 6.6534 9 47.3443 9 M 7.1007 8.5 46.897 8.5 M 7.5711 8 46.4266 8 M 8.0664 7.5 45.9313 7.5 M 8.5886 7 45.4091 7 M 9.14 6.5 44.8577 6.5 M 9.7235 6 44.2742 6 M 10.3424 5.5 43.6553 5.5 M 11.0008 5 42.9969 5 M 11.7038 4.5 42.2939 4.5 M 12.458 4 41.5397 4 M 13.2716 3.5 40.7261 3.5 M 14.156 3 39.8416 3 M 15.1271 2.5 38.8706 2.5 M 16.2082 2 37.7895 2 M 17.4365 1.5 36.5611 1.5 M 18.8787 1 35.119 1 M 20.6792 0.5 33.3185 0.5 M 23.3331 0 30.6646 0 M 30.3808 41.5 49.6138 41.5 M 32.8244 41 49.9322 41 M 34.478 40.5 50.2354 40.5 M 35.7987 40 50.5241 40 M 36.9204 39.5 50.7988 39.5 M 37.9047 39 51.06 39 M 38.786 38.5 51.308 38.5 M 39.586 38 51.5434 38 M 40.3194 37.5 51.7665 37.5 M 40.9966 37 51.9776 37 M 41.6254 36.5 52.177 36.5 M 42.2119 36 52.3649 36 M 42.7607 35.5 52.5417 35.5 M 24.0941 35.5 29.9036 35.5 M 22.0051 35 31.9926 35 M 43.2757 35 52.7075 35 M 20.6006 34.5 33.3971 34.5 M 43.6737 34.5 52.8627 34.5 M 19.4864 34 34.5113 34 M 43.9289 34 53.0073 34 M 18.5468 33.5 35.4509 33.5 M 44.0787 33.5 53.1415 33.5 M 17.7286 33 36.2691 33 M 44.139 33 53.2655 33 M 17.002 32.5 36.9957 32.5 M 44.1152 32.5 53.3795 32.5 M 16.3481 32 37.6495 32 M 44.0053 32 53.4835 32 M 15.7544 31.5 38.2433 31.5 M 43.7984 31.5 53.5777 31.5 M 15.2117 31 38.786 31 M 43.469 31 53.6623 31 M 14.6671 30.5 39.3305 30.5 M 42.9514 30.5 53.7372 30.5 M 13.6539 30 40.3438 30 M 41.9382 30 53.8025 30 M 38.3908 22.5 53.6623 22.5 M 18.3908 22.5 35.6069 22.5 M 39.3307 22 53.5777 22 M 19.3307 22 34.667 22 M 39.9036 21.5 53.4835 21.5 M 19.9036 21.5 34.0941 21.5 M 40.306 21 53.3795 21 M 20.306 21 33.6917 21 M 40.5957 20.5 53.2655 20.5 M 20.5957 20.5 33.402 20.5 M 40.7985 20 53.1415 20 M 20.7985 20 33.1992 20 M 40.9279 19.5 53.0073 19.5 M 20.9279 19.5 33.0698 19.5 M 40.991 19 52.8627 19 M 20.991 19 33.0067 19 M 40.991 18.5 52.7075 18.5 M 20.991 18.5 33.0067 18.5 M 40.9279 18 52.5417 18 M 20.9279 18 33.0698 18 M 40.7985 17.5 52.3649 17.5 M 20.7985 17.5 33.1992 17.5 M 40.5957 17 52.177 17 M 20.5957 17 33.402 17 M 40.306 16.5 51.9776 16.5 M 20.306 16.5 33.6917 16.5 M 39.9036 16 51.7665 16 M 19.9036 16 34.0941 16 M 39.3307 15.5 51.5434 15.5 M 19.3307 15.5 34.667 15.5 M 38.3908 15 51.308 15 M 18.3908 15 35.6069 15" vector-effect="non-scaling-stroke"/></g></svg>