<svg width="77.2267" height="22.9102" viewBox="0 0 77.2267 22.9102" xmlns="http://www.w3.org/2000/svg"><g id="svgGroup" stroke-linecap="round" fill-rule="evenodd" font-size="9pt" stroke="#000" stroke-width="0.25mm" fill="none" style="stroke:#000;stroke-width:0.25mm;fill:none"><path d="M 12.9199 1.1719 L 16.4355 1.1719 L 16.4355 22.7637 L 12.9199 22.7637 L 12.9199 13.0371 L 4.7754 13.0371 L 4.7754 10.6348 L 12.9199 10.6348 L 12.9199 1.1719 Z M 44.6777 0 L 44.6777 17.7246 A 6.1337 6.1337 0 0 0 44.7035 18.3057 Q 44.7601 18.8992 44.9414 19.292 Q 45.2051 19.8633 45.6738 20.1416 A 2.7734 2.7734 0 0 0 46.4511 20.452 A 3.3409 3.3409 0 0 0 46.7432 20.5078 Q 47.3438 20.5957 48.0469 20.5957 L 48.0469 22.7637 A 9.672 9.672 0 0 1 47.3579 22.8438 A 10.672 10.672 0 0 1 47.2559 22.8516 A 10.0852 10.0852 0 0 1 46.9977 22.8715 Q 46.7688 22.8864 46.4941 22.8955 A 26.3801 26.3801 0 0 1 45.6152 22.9102 A 13.2093 13.2093 0 0 1 44.7363 22.8809 Q 44.2969 22.8516 43.9453 22.793 A 3.1194 3.1194 0 0 1 43.1831 22.5365 A 2.3923 2.3923 0 0 1 42.3926 21.9141 Q 41.8359 21.2402 41.543 20.4053 A 7.2018 7.2018 0 0 1 41.2531 19.3283 A 6.1473 6.1473 0 0 1 41.1768 18.7793 A 26.1727 26.1727 0 0 1 41.1447 18.4058 Q 41.1132 18.002 41.1058 17.7142 A 6.4607 6.4607 0 0 1 41.1035 17.5488 L 41.1035 17.1973 L 41.1035 0 L 44.6777 0 Z M 55.3125 0 L 55.3125 17.7246 A 6.1337 6.1337 0 0 0 55.3382 18.3057 Q 55.3949 18.8992 55.5762 19.292 Q 55.8398 19.8633 56.3086 20.1416 A 2.7734 2.7734 0 0 0 57.0859 20.452 A 3.3409 3.3409 0 0 0 57.3779 20.5078 Q 57.9785 20.5957 58.6816 20.5957 L 58.6816 22.7637 A 9.672 9.672 0 0 1 57.9927 22.8438 A 10.672 10.672 0 0 1 57.8906 22.8516 A 10.0852 10.0852 0 0 1 57.6324 22.8715 Q 57.4036 22.8864 57.1289 22.8955 A 26.3801 26.3801 0 0 1 56.25 22.9102 A 13.2093 13.2093 0 0 1 55.3711 22.8809 Q 54.9316 22.8516 54.5801 22.793 A 3.1194 3.1194 0 0 1 53.8178 22.5365 A 2.3923 2.3923 0 0 1 53.0273 21.9141 Q 52.4707 21.2402 52.1777 20.4053 A 7.2018 7.2018 0 0 1 51.8878 19.3283 A 6.1473 6.1473 0 0 1 51.8115 18.7793 A 26.1727 26.1727 0 0 1 51.7795 18.4058 Q 51.7479 18.002 51.7405 17.7142 A 6.4607 6.4607 0 0 1 51.7383 17.5488 L 51.7383 17.1973 L 51.7383 0 L 55.3125 0 Z M 33.1348 18.4863 L 34.4238 20.4492 A 6.6973 6.6973 0 0 1 32.9422 21.8239 A 6.0921 6.0921 0 0 1 32.168 22.2656 Q 31.1177 22.7669 29.6006 22.8598 A 11.6926 11.6926 0 0 1 28.8867 22.8809 A 7.0211 7.0211 0 0 1 25.8691 22.2217 Q 24.4629 21.5625 23.4668 20.4199 A 8.7153 8.7153 0 0 1 22.0377 18.1288 A 10.0193 10.0193 0 0 1 21.8848 17.7539 A 8.9245 8.9245 0 0 1 21.308 14.9084 A 10.2933 10.2933 0 0 1 21.2988 14.4727 Q 21.2988 12.8027 21.8408 11.3086 A 8.9904 8.9904 0 0 1 22.8502 9.3116 A 8.0892 8.0892 0 0 1 23.3203 8.6865 A 7.8224 7.8224 0 0 1 25.5029 6.8555 Q 26.748 6.1523 28.1836 6.0645 L 28.1836 8.877 A 3.8545 3.8545 0 0 0 27.1983 9.1975 A 3.1643 3.1643 0 0 0 26.3965 9.7559 A 4.9932 4.9932 0 0 0 25.2979 11.2939 Q 24.9023 12.1582 24.7412 13.0664 A 12.6141 12.6141 0 0 0 24.643 13.7105 Q 24.5801 14.2163 24.5801 14.6191 A 8.2599 8.2599 0 0 0 24.6943 16.0169 A 6.9951 6.9951 0 0 0 24.8584 16.7432 A 4.9259 4.9259 0 0 0 25.3412 17.8924 A 4.3091 4.3091 0 0 0 25.7227 18.4424 A 4.2855 4.2855 0 0 0 27.1729 19.585 Q 27.984 19.9836 29.1176 20.0082 A 6.9354 6.9354 0 0 0 29.2676 20.0098 Q 29.4866 20.0098 29.7801 19.9759 A 8.3331 8.3331 0 0 0 30.0732 19.9365 A 5.0996 5.0996 0 0 0 30.6356 19.817 A 6.5038 6.5038 0 0 0 31.0986 19.6729 A 7.4307 7.4307 0 0 0 32.0471 19.2611 A 8.2919 8.2919 0 0 0 32.1826 19.1895 A 4.1134 4.1134 0 0 0 33.0534 18.5653 A 3.8331 3.8331 0 0 0 33.1348 18.4863 Z M 0 22.7637 L 0 1.1719 L 3.5742 1.1719 L 3.5742 22.7637 L 0 22.7637 Z M 70.1953 8.9063 L 70.1953 6.1523 Q 71.8066 6.2402 73.125 6.9287 Q 74.4434 7.6172 75.3369 8.7451 A 8.291 8.291 0 0 1 76.5273 10.8184 A 9.7213 9.7213 0 0 1 76.7285 11.3672 A 9.873 9.873 0 0 1 77.2178 14.1128 A 11.3255 11.3255 0 0 1 77.2266 14.5605 Q 77.2266 16.2598 76.7139 17.7393 A 8.6376 8.6376 0 0 1 75.8464 19.5554 A 7.5808 7.5808 0 0 1 75.293 20.3174 A 6.9622 6.9622 0 0 1 73.0664 22.0898 A 7.4779 7.4779 0 0 1 70.1953 22.8809 L 70.1953 20.0684 A 3.4238 3.4238 0 0 0 72.0462 18.9566 A 4.9707 4.9707 0 0 0 72.583 18.2227 A 6.2524 6.2524 0 0 0 73.3761 16.078 A 8.4977 8.4977 0 0 0 73.5059 14.5605 A 9.494 9.494 0 0 0 73.402 13.1324 A 8.1564 8.1564 0 0 0 73.2861 12.5244 A 6.5509 6.5509 0 0 0 72.9031 11.3567 A 5.6243 5.6243 0 0 0 72.627 10.8105 A 4.7616 4.7616 0 0 0 72.009 9.9614 A 4.0935 4.0935 0 0 0 71.5723 9.5508 Q 70.957 9.0527 70.1953 8.9063 Z M 68.9941 6.1816 L 68.9941 8.9063 A 3.3282 3.3282 0 0 0 67.1105 10.0845 A 4.8181 4.8181 0 0 0 66.6504 10.752 Q 65.7715 12.2754 65.7715 14.4141 A 9.559 9.559 0 0 0 65.8925 15.9586 A 8.4086 8.4086 0 0 0 65.9912 16.4648 A 7.4724 7.4724 0 0 0 66.2987 17.4876 A 6.0908 6.0908 0 0 0 66.6211 18.1934 A 4.4625 4.4625 0 0 0 67.2082 19.0425 A 3.8507 3.8507 0 0 0 67.6318 19.4531 Q 68.2324 19.9512 68.9941 20.0684 L 68.9941 22.8809 A 7.639 7.639 0 0 1 67.1059 22.5112 A 6.6325 6.6325 0 0 1 66.0938 22.0752 Q 64.8047 21.3867 63.8965 20.2734 A 7.7388 7.7388 0 0 1 62.7011 18.2129 A 9.0878 9.0878 0 0 1 62.5049 17.666 A 10.1508 10.1508 0 0 1 62.0234 14.71 A 11.425 11.425 0 0 1 62.0215 14.502 A 10.2181 10.2181 0 0 1 62.2569 12.2763 A 8.9639 8.9639 0 0 1 62.5195 11.3379 A 8.1153 8.1153 0 0 1 63.5056 9.3466 A 7.386 7.386 0 0 1 63.9404 8.7744 Q 64.8633 7.6758 66.1523 7.002 A 7.5302 7.5302 0 0 1 68.7053 6.2137 A 8.6843 8.6843 0 0 1 68.9941 6.1816 Z M 29.3848 8.8477 L 29.3848 6.0938 A 7.576 7.576 0 0 1 31.3287 6.5257 A 6.729 6.729 0 0 1 32.2412 6.9434 A 7.4051 7.4051 0 0 1 34.4238 8.7598 A 8.0551 8.0551 0 0 1 35.8079 11.2862 A 9.0537 9.0537 0 0 1 35.8154 11.3086 Q 36.2988 12.7441 36.2988 14.2969 Q 36.2988 15 36.2109 15.7031 L 26.1621 15.7031 L 26.1621 13.125 L 32.9297 13.125 Q 32.9297 12.3633 32.6807 11.6602 A 4.4236 4.4236 0 0 0 31.9482 10.3564 A 4.6307 4.6307 0 0 0 30.8203 9.3457 A 3.3189 3.3189 0 0 0 29.3848 8.8477 Z" vector-effect="non-scaling-stroke"/></g></svg>